<?xml version="1.0" encoding="UTF-8"?>
<svg id="Layer_2" xmlns="http://www.w3.org/2000/svg" width="500" height="552.3255813921377" viewBox="0 0 85.44 94.69">
      <defs>
        <style>
          .cls-1 {
            fill: #001A72;
          }
          .cls-2 {
            fill: #87CCE8;
          }
        </style>
      </defs>
      <g id="_3">
        <g>
          <path class="cls-2" d="M37.28,1.44L5.42,19.73c-1.65,.95-3.02,2.31-3.97,3.95C.5,25.32,0,27.17,0,29.07v36.56c0,1.89,.5,3.75,1.46,5.39,.95,1.64,2.32,3,3.97,3.95l31.86,18.28c1.65,.95,3.52,1.45,5.43,1.45s3.78-.5,5.43-1.45l31.86-18.28c1.65-.95,3.02-2.31,3.97-3.95,.95-1.64,1.46-3.5,1.46-5.39V29.07c0-1.89-.5-3.75-1.46-5.39-.95-1.64-2.32-3-3.97-3.95L48.14,1.44c-1.65-.95-3.52-1.44-5.43-1.44s-3.78,.5-5.43,1.44Z"/>
          <path class="cls-1" d="M57.51,21.35c-4.55-2.65-9.95-3.43-15.07-2.2-5.12,1.24-9.56,4.4-12.37,8.82-.88,1.34-11.94,20.26-11.94,20.26-.11,.19-.18,.39-.22,.61-.03,.22-.02,.43,.04,.65,.06,.21,.15,.41,.28,.58,.13,.17,.3,.32,.49,.43,.19,.11,.4,.19,.61,.22,.22,.03,.44,.02,.65-.04,.21-.05,.41-.15,.59-.28,.17-.13,.32-.3,.43-.49l8.32-14.11c.7,.69,1.55,1.22,2.49,1.54l-16.58,27.85c-.22,.38-.29,.83-.18,1.25,.11,.42,.38,.79,.76,1.01,.25,.15,.54,.23,.83,.23,.29,0,.58-.07,.84-.22,.25-.14,.47-.35,.62-.6l17.01-28.6,1.11,.25,1.78,.4-12.18,20.59c-.22,.38-.28,.83-.17,1.25,.11,.42,.39,.79,.77,1.01,.25,.15,.54,.23,.83,.23,.29,0,.58-.07,.84-.21,.26-.14,.47-.35,.62-.6l12.63-21.37c.93,.3,1.85,.66,2.74,1.08l-8.53,14.25c-.2,.38-.25,.82-.13,1.23,.12,.41,.39,.76,.76,.97,.37,.22,.81,.28,1.23,.18,.42-.1,.78-.35,1.02-.71l8.49-14.19c.78,.56,1.52,1.17,2.22,1.82l-12.94,21.86c-.12,.19-.21,.4-.25,.62-.04,.22-.03,.45,.02,.67s.15,.42,.28,.6c.13,.18,.3,.33,.5,.45,.19,.11,.41,.19,.63,.21,.22,.03,.45,.01,.67-.05,.22-.06,.42-.17,.59-.31,.18-.14,.32-.32,.42-.52l12.49-21.09,1.19,1.3,.85,.95-16.98,28.55c-.12,.19-.21,.4-.25,.62-.04,.22-.03,.45,.02,.67s.15,.42,.28,.6c.13,.18,.3,.33,.5,.45,.19,.11,.41,.19,.63,.22,.22,.03,.45,.01,.67-.05,.22-.06,.42-.17,.59-.31,.18-.14,.32-.32,.42-.52l16.56-27.85c.72,.62,1.56,1.07,2.48,1.33l-8.4,14.28c-.12,.19-.19,.4-.23,.61-.03,.22-.02,.44,.03,.65,.05,.21,.15,.41,.28,.59,.13,.18,.3,.32,.49,.44,.19,.11,.4,.18,.62,.21,.22,.03,.44,.02,.66-.04,.21-.06,.41-.15,.59-.29,.18-.13,.32-.3,.43-.49l11.73-19.89c2.71-4.61,3.47-10.11,2.11-15.28-1.36-5.17-4.72-9.59-9.36-12.3h0Zm4.62,25.43l-.57,.97c-.81,1.3-1.36,1.74-1.92,1.76-.95,.03-2.76-1.78-4.35-3.55-2.06-2.31-4.63-5.18-8.07-7.18-3.44-1.99-7.22-2.84-10.25-3.52-2.33-.51-4.82-1.1-5.27-1.94-.31-.57-.08-1.47,.93-3.15,1.1-1.93,2.56-3.62,4.32-4.98,1.75-1.36,3.76-2.37,5.91-2.96,2.15-.59,4.39-.76,6.6-.49,2.21,.27,4.34,.97,6.28,2.06s3.64,2.55,5.01,4.29c1.37,1.74,2.38,3.74,2.98,5.87,.6,2.13,.76,4.36,.49,6.55-.27,2.2-.97,4.32-2.07,6.24l-.02,.03Zm-9.08-15.81c-.54,.12-1.1,.09-1.61-.11-.51-.19-.96-.53-1.28-.98-.32-.44-.5-.97-.52-1.52-.02-.55,.13-1.09,.42-1.55,.29-.46,.71-.83,1.21-1.06,.5-.23,1.06-.3,1.6-.21,.54,.09,1.05,.34,1.45,.71s.68,.86,.81,1.39c.08,.35,.1,.72,.04,1.08-.06,.36-.19,.7-.38,1.01-.19,.31-.45,.58-.74,.79-.3,.21-.63,.36-.99,.45h0Zm-7.77,.73c-.42,.1-.87,.06-1.27-.09-.41-.15-.76-.42-1.01-.77-.25-.35-.4-.77-.41-1.2-.02-.43,.1-.86,.33-1.23,.23-.37,.56-.66,.95-.84,.39-.18,.83-.24,1.26-.18,.43,.07,.83,.26,1.15,.55s.55,.67,.65,1.09c.07,.28,.08,.58,.04,.86-.05,.29-.15,.56-.3,.81s-.36,.46-.6,.63c-.24,.17-.51,.29-.8,.35v.02Zm14.6,9.33c-.44,.1-.9,.07-1.32-.09-.42-.16-.79-.44-1.05-.8-.26-.36-.41-.8-.42-1.24-.01-.45,.11-.89,.34-1.27,.24-.38,.58-.68,.99-.86,.41-.18,.87-.24,1.31-.17,.44,.07,.86,.28,1.18,.58,.33,.31,.56,.7,.66,1.14,.13,.58,.03,1.19-.29,1.7-.32,.5-.83,.86-1.41,1v.02Zm-.69-5.34c-.34,.08-.7,.06-1.03-.06-.33-.12-.62-.33-.82-.62-.21-.28-.33-.62-.34-.97-.01-.35,.08-.69,.26-.99,.18-.3,.45-.53,.77-.68,.32-.15,.67-.19,1.02-.14,.35,.05,.67,.21,.93,.45,.26,.24,.44,.55,.52,.88,.1,.45,.02,.92-.22,1.31-.24,.39-.63,.67-1.08,.78v.02Zm-4,1.76c-.25,.06-.51,.04-.75-.06-.24-.09-.45-.25-.6-.46-.15-.21-.23-.46-.24-.71,0-.26,.06-.51,.2-.72,.14-.22,.33-.39,.57-.49,.23-.11,.49-.14,.75-.1,.25,.04,.49,.16,.68,.33,.19,.17,.32,.4,.38,.65,.04,.17,.05,.34,.02,.51-.03,.17-.09,.33-.18,.48-.09,.15-.21,.27-.35,.37s-.3,.17-.47,.21Zm-14.66-8.79c-.25,.06-.51,.04-.75-.06-.24-.09-.45-.25-.59-.46-.15-.21-.23-.45-.24-.71,0-.25,.06-.51,.2-.72,.14-.22,.33-.39,.57-.49,.23-.11,.49-.14,.75-.1s.49,.15,.68,.33c.19,.17,.32,.4,.38,.64,.08,.33,.01,.69-.17,.98-.18,.29-.48,.5-.81,.57v.03Z"/>
        </g>
      </g>
    </svg>